<svg xmlns="http://www.w3.org/2000/svg" viewBox="0 0 2048 2048" style="enable-background:new 0 0 2048 2048" xml:space="preserve"><style>.st7{fill:#542a19}.st63{fill:#542a1b}</style><g id="Layer_18"><linearGradient id="SVGID_1_" gradientUnits="userSpaceOnUse" x1="280.28" y1="1024" x2="1767.72" y2="1024"><stop offset="0" style="stop-color:#fedc52"/><stop offset=".995" style="stop-color:#fcb117"/></linearGradient><circle cx="1024" cy="1024" r="743.72" style="fill:url(#SVGID_1_)"/><g style="opacity:.81"><path d="M540.23 770.15c-2.07 0-4.16-.21-6.27-.66-16.21-3.44-26.55-19.38-23.11-35.58 21.98-103.42 83.1-188.9 176.75-247.22 76.68-47.75 173.16-74.85 264.59-74.41 16.57.08 29.93 13.58 29.85 30.15-.08 16.52-13.5 29.85-30 29.85h-1.93c-130.25 0-337.77 72.7-380.58 274.11-2.98 14.1-15.44 23.76-29.3 23.76z" style="fill:#fff"/></g><ellipse class="st7" cx="775.69" cy="837.74" rx="62.77" ry="88.74"/><path class="st7" d="M1204.44 856.56c11-27.39 31.5-56.01 63.63-57.2 32.39-1.21 53.54 33.17 63.63 59.23 10.11 26.25 52.79 14.85 42.52-11.73-18.29-47.37-51.74-89.59-106.15-91.62-52.9-1.97-88.62 45.89-106.15 89.59-10.64 26.42 32.07 37.8 42.52 11.73z"/><g><path class="st63" d="M1026.63 1376.93c-9.16 0-17.42-6.33-19.5-15.64-2.41-10.78 4.37-21.47 15.15-23.88 26.6-5.95 54.76-24.23 62.78-40.75 3.41-7.02 2.11-11.54.61-14.69-.03-.07-.07-.14-.1-.22-2.28-4.91-6.9-11.83-20.62-15.13-31.97-7.68-82.37 10.91-103.02 27.09-8.7 6.81-21.27 5.28-28.08-3.41-6.81-8.7-5.28-21.27 3.41-28.08 15.35-12.02 37.94-22.89 61.99-29.83 19.58-5.65 48.5-11.04 75.05-4.67 22.27 5.35 38.7 18.17 47.51 37.07 7.52 15.78 7.25 32.83-.75 49.33-15.79 32.5-57.73 55.09-90.03 62.31-1.49.34-2.96.5-4.4.5z"/><path class="st63" d="M1048.33 1489c-18.23 0-35.81-3.72-49.1-7.55-24.05-6.94-46.64-17.81-61.98-29.84-8.69-6.81-10.22-19.38-3.41-28.08 6.81-8.7 19.38-10.22 28.08-3.41 20.65 16.18 71.04 34.78 103.01 27.09 13.73-3.3 18.35-10.22 20.63-15.13.03-.07.07-.14.1-.22 1.51-3.15 2.8-7.67-.61-14.69-8.02-16.52-36.19-34.8-62.78-40.75-10.78-2.41-17.56-13.11-15.15-23.88 2.41-10.78 13.11-17.56 23.88-15.15 32.29 7.23 74.24 29.81 90.03 62.31 8.01 16.49 8.27 33.55.75 49.33-8.81 18.9-25.24 31.72-47.52 37.08-8.52 2.06-17.29 2.89-25.93 2.89z"/></g><linearGradient id="SVGID_2_" gradientUnits="userSpaceOnUse" x1="565.674" y1="1311.421" x2="1040.343" y2="1311.421" gradientTransform="scale(-1 1) rotate(-14.366 -41.115 10523.05)"><stop offset=".004" style="stop-color:#e42326"/><stop offset="1" style="stop-color:#ea3d3d"/></linearGradient><path style="fill-rule:evenodd;clip-rule:evenodd;fill:url(#SVGID_2_)" d="M1446.21 1156.17c-63.86-16.36-127.38 19.09-144.4 85.51-22.9 89.41 55.85 185.8 154.66 352.65 166.86-98.81 282.25-145.47 305.15-234.88 17.01-66.42-21.65-128.04-85.51-144.4-51.09-13.09-105.58 8.35-134.58 47.19-6.76-48-44.23-92.99-95.32-106.07z"/></g></svg>